<svg version="1.1" viewBox="0.0 0.0 961.5275590551181 417.3910761154856" fill="none" stroke="none" stroke-linecap="square" stroke-miterlimit="10" xmlns:xlink="http://www.w3.org/1999/xlink" xmlns="http://www.w3.org/2000/svg"><clipPath id="p.0"><path d="m0 0l961.5276 0l0 417.39108l-961.5276 0l0 -417.39108z" clip-rule="nonzero"/></clipPath><g clip-path="url(#p.0)"><path fill="#000000" fill-opacity="0.0" d="m0 0l961.5276 0l0 417.39108l-961.5276 0z" fill-rule="evenodd"/><path fill="#cfe2f3" d="m16.900263 16.055119l190.14172 0l0 76.06299l-190.14172 0z" fill-rule="evenodd"/><path stroke="#000000" stroke-width="3.0" stroke-linejoin="round" stroke-linecap="butt" d="m16.900263 16.055119l190.14172 0l0 76.06299l-190.14172 0z" fill-rule="evenodd"/><path fill="#000000" d="m83.228806 61.00661l0 -13.359375l4.03125 0l2.421875 9.109375l2.390625 -9.109375l4.046875 0l0 13.359375l-2.5 0l0 -10.515625l-2.65625 10.515625l-2.59375 0l-2.640625 -10.515625l0 10.515625l-2.5 0zm17.462677 -6.71875l-2.328125 -0.421875q0.40625 -1.40625 1.359375 -2.078125q0.953125 -0.671875 2.84375 -0.671875q1.703125 0 2.546875 0.40625q0.84375 0.40625 1.171875 1.03125q0.34375 0.625 0.34375 2.28125l-0.015625 3.0q0 1.265625 0.109375 1.875q0.125 0.609375 0.46875 1.296875l-2.53125 0q-0.109375 -0.25 -0.25 -0.75q-0.0625 -0.234375 -0.09375 -0.3125q-0.65625 0.640625 -1.40625 0.96875q-0.734375 0.3125 -1.59375 0.3125q-1.484375 0 -2.34375 -0.8125q-0.859375 -0.8125 -0.859375 -2.046875q0 -0.828125 0.390625 -1.46875q0.390625 -0.640625 1.09375 -0.96875q0.703125 -0.34375 2.03125 -0.609375q1.796875 -0.328125 2.484375 -0.625l0 -0.25q0 -0.75 -0.359375 -1.0625q-0.359375 -0.3125 -1.375 -0.3125q-0.6875 0 -1.078125 0.28125q-0.375 0.265625 -0.609375 0.9375zm3.421875 2.078125q-0.484375 0.15625 -1.5625 0.390625q-1.0625 0.21875 -1.390625 0.4375q-0.5 0.359375 -0.5 0.90625q0 0.53125 0.40625 0.9375q0.40625 0.390625 1.015625 0.390625q0.703125 0 1.328125 -0.46875q0.46875 -0.34375 0.609375 -0.84375q0.09375 -0.328125 0.09375 -1.25l0 -0.5zm4.141342 1.875l2.5625 -0.390625q0.171875 0.75 0.671875 1.140625q0.5 0.390625 1.40625 0.390625q0.984375 0 1.484375 -0.375q0.34375 -0.25 0.34375 -0.671875q0 -0.296875 -0.1875 -0.484375q-0.1875 -0.1875 -0.859375 -0.34375q-3.09375 -0.6875 -3.921875 -1.25q-1.140625 -0.78125 -1.140625 -2.171875q0 -1.265625 0.984375 -2.109375q1.0 -0.859375 3.078125 -0.859375q1.984375 0 2.953125 0.65625q0.96875 0.640625 1.328125 1.90625l-2.40625 0.4375q-0.15625 -0.5625 -0.59375 -0.859375q-0.421875 -0.296875 -1.234375 -0.296875q-1.0 0 -1.4375 0.28125q-0.296875 0.203125 -0.296875 0.515625q0 0.265625 0.25 0.46875q0.34375 0.25 2.390625 0.71875q2.046875 0.453125 2.859375 1.140625q0.796875 0.671875 0.796875 1.890625q0 1.34375 -1.109375 2.296875q-1.109375 0.953125 -3.28125 0.953125q-1.984375 0 -3.140625 -0.796875q-1.140625 -0.8125 -1.5 -2.1875zm15.719467 -6.90625l0 2.03125l-1.75 0l0 3.90625q0 1.1875 0.046875 1.390625q0.046875 0.1875 0.21875 0.3125q0.1875 0.125 0.4375 0.125q0.359375 0 1.03125 -0.25l0.21875 2.0q-0.890625 0.375 -2.015625 0.375q-0.703125 0 -1.265625 -0.234375q-0.546875 -0.234375 -0.8125 -0.59375q-0.25 -0.375 -0.34375 -1.0q-0.09375 -0.453125 -0.09375 -1.8125l0 -4.21875l-1.171875 0l0 -2.03125l1.171875 0l0 -1.921875l2.578125 -1.5l0 3.421875l1.75 0zm7.368927 6.59375l2.546875 0.421875q-0.484375 1.40625 -1.546875 2.140625q-1.0625 0.734375 -2.65625 0.734375q-2.515625 0 -3.734375 -1.65625q-0.953125 -1.3125 -0.953125 -3.328125q0 -2.40625 1.25 -3.765625q1.265625 -1.359375 3.1875 -1.359375q2.15625 0 3.40625 1.421875q1.25 1.421875 1.1875 4.375l-6.40625 0q0.03125 1.140625 0.609375 1.78125q0.59375 0.625 1.484375 0.625q0.59375 0 1.0 -0.328125q0.421875 -0.328125 0.625 -1.0625zm0.15625 -2.59375q-0.03125 -1.109375 -0.578125 -1.6875q-0.546875 -0.578125 -1.328125 -0.578125q-0.84375 0 -1.390625 0.609375q-0.546875 0.609375 -0.53125 1.65625l3.828125 0zm7.078842 5.671875l-2.5625 0l0 -9.671875l2.375 0l0 1.375q0.609375 -0.984375 1.09375 -1.28125q0.484375 -0.3125 1.109375 -0.3125q0.875 0 1.6875 0.484375l-0.796875 2.234375q-0.640625 -0.421875 -1.203125 -0.421875q-0.53125 0 -0.90625 0.296875q-0.375 0.296875 -0.59375 1.078125q-0.203125 0.765625 -0.203125 3.234375l0 2.984375z" fill-rule="nonzero"/><path fill="#fce5cd" d="m247.54855 16.055119l190.14172 0l0 76.06299l-190.14172 0z" fill-rule="evenodd"/><path stroke="#000000" stroke-width="3.0" stroke-linejoin="round" stroke-linecap="butt" d="m247.54855 16.055119l190.14172 0l0 76.06299l-190.14172 0z" fill-rule="evenodd"/><path fill="#000000" d="m275.56845 61.00661l0 -13.359375l9.15625 0l0 2.265625l-6.453125 0l0 3.15625l5.5625 0l0 2.265625l-5.5625 0l0 5.671875l-2.703125 0zm16.958466 -3.078125l2.546875 0.421875q-0.484375 1.40625 -1.546875 2.140625q-1.0625 0.734375 -2.65625 0.734375q-2.515625 0 -3.734375 -1.65625q-0.953125 -1.3125 -0.953125 -3.328125q0 -2.40625 1.25 -3.765625q1.265625 -1.359375 3.1875 -1.359375q2.15625 0 3.40625 1.421875q1.25 1.421875 1.1875 4.375l-6.40625 0q0.03125 1.140625 0.609375 1.78125q0.59375 0.625 1.484375 0.625q0.59375 0 1.0 -0.328125q0.421875 -0.328125 0.625 -1.0625zm0.15625 -2.59375q-0.03125 -1.109375 -0.578125 -1.6875q-0.546875 -0.578125 -1.328125 -0.578125q-0.84375 0 -1.390625 0.609375q-0.546875 0.609375 -0.53125 1.65625l3.828125 0zm6.5319824 -1.046875l-2.328125 -0.421875q0.40625 -1.40625 1.359375 -2.078125q0.953125 -0.671875 2.84375 -0.671875q1.703125 0 2.546875 0.40625q0.84375 0.40625 1.171875 1.03125q0.34375 0.625 0.34375 2.28125l-0.015625 3.0q0 1.265625 0.109375 1.875q0.125 0.609375 0.46875 1.296875l-2.53125 0q-0.109375 -0.25 -0.25 -0.75q-0.0625 -0.234375 -0.09375 -0.3125q-0.65625 0.640625 -1.40625 0.96875q-0.734375 0.3125 -1.59375 0.3125q-1.484375 0 -2.34375 -0.8125q-0.859375 -0.8125 -0.859375 -2.046875q0 -0.828125 0.390625 -1.46875q0.390625 -0.640625 1.09375 -0.96875q0.703125 -0.34375 2.03125 -0.609375q1.796875 -0.328125 2.484375 -0.625l0 -0.25q0 -0.75 -0.359375 -1.0625q-0.359375 -0.3125 -1.375 -0.3125q-0.6875 0 -1.078125 0.28125q-0.375 0.265625 -0.609375 0.9375zm3.421875 2.078125q-0.484375 0.15625 -1.5625 0.390625q-1.0625 0.21875 -1.390625 0.4375q-0.5 0.359375 -0.5 0.90625q0 0.53125 0.40625 0.9375q0.40625 0.390625 1.015625 0.390625q0.703125 0 1.328125 -0.46875q0.46875 -0.34375 0.609375 -0.84375q0.09375 -0.328125 0.09375 -1.25l0 -0.5zm9.485077 -5.03125l0 2.03125l-1.75 0l0 3.90625q0 1.1875 0.046875 1.390625q0.046875 0.1875 0.21875 0.3125q0.1875 0.125 0.4375 0.125q0.359375 0 1.03125 -0.25l0.21875 2.0q-0.890625 0.375 -2.015625 0.375q-0.703125 0 -1.265625 -0.234375q-0.546875 -0.234375 -0.8125 -0.59375q-0.25 -0.375 -0.34375 -1.0q-0.09375 -0.453125 -0.09375 -1.8125l0 -4.21875l-1.171875 0l0 -2.03125l1.171875 0l0 -1.921875l2.578125 -1.5l0 3.421875l1.75 0zm8.134552 9.671875l0 -1.453125q-0.53125 0.78125 -1.390625 1.234375q-0.859375 0.4375 -1.8125 0.4375q-0.96875 0 -1.75 -0.421875q-0.765625 -0.4375 -1.125 -1.203125q-0.34375 -0.78125 -0.34375 -2.140625l0 -6.125l2.5625 0l0 4.4375q0 2.046875 0.140625 2.515625q0.140625 0.453125 0.515625 0.71875q0.375 0.265625 0.953125 0.265625q0.65625 0 1.171875 -0.359375q0.515625 -0.359375 0.703125 -0.890625q0.203125 -0.53125 0.203125 -2.609375l0 -4.078125l2.546875 0l0 9.671875l-2.375 0zm7.489746 0l-2.5625 0l0 -9.671875l2.375 0l0 1.375q0.609375 -0.984375 1.09375 -1.28125q0.484375 -0.3125 1.109375 -0.3125q0.875 0 1.6875 0.484375l-0.796875 2.234375q-0.640625 -0.421875 -1.203125 -0.421875q-0.53125 0 -0.90625 0.296875q-0.375 0.296875 -0.59375 1.078125q-0.203125 0.765625 -0.203125 3.234375l0 2.984375zm10.400879 -3.078125l2.546875 0.421875q-0.484375 1.40625 -1.546875 2.140625q-1.0625 0.734375 -2.65625 0.734375q-2.515625 0 -3.734375 -1.65625q-0.953125 -1.3125 -0.953125 -3.328125q0 -2.40625 1.25 -3.765625q1.265625 -1.359375 3.1875 -1.359375q2.15625 0 3.40625 1.421875q1.25 1.421875 1.1875 4.375l-6.40625 0q0.03125 1.140625 0.609375 1.78125q0.59375 0.625 1.484375 0.625q0.59375 0 1.0 -0.328125q0.421875 -0.328125 0.625 -1.0625zm0.15625 -2.59375q-0.03125 -1.109375 -0.578125 -1.6875q-0.546875 -0.578125 -1.328125 -0.578125q-0.84375 0 -1.390625 0.609375q-0.546875 0.609375 -0.53125 1.65625l3.828125 0zm9.824646 -7.6875l5.34375 0q1.59375 0 2.359375 0.140625q0.78125 0.125 1.390625 0.546875q0.625 0.421875 1.03125 1.125q0.40625 0.6875 0.40625 1.546875q0 0.9375 -0.5 1.734375q-0.5 0.78125 -1.375 1.171875q1.21875 0.359375 1.875 1.21875q0.65625 0.84375 0.65625 2.0q0 0.921875 -0.421875 1.78125q-0.421875 0.859375 -1.15625 1.375q-0.734375 0.515625 -1.796875 0.625q-0.6875 0.078125 -3.265625 0.09375l-4.546875 0l0 -13.359375zm2.703125 2.234375l0 3.078125l1.765625 0q1.578125 0 1.953125 -0.046875q0.703125 -0.078125 1.09375 -0.46875q0.40625 -0.40625 0.40625 -1.046875q0 -0.625 -0.34375 -1.0q-0.34375 -0.390625 -1.015625 -0.484375q-0.40625 -0.03125 -2.3125 -0.03125l-1.546875 0zm0 5.296875l0 3.578125l2.5 0q1.453125 0 1.84375 -0.078125q0.609375 -0.109375 0.984375 -0.53125q0.375 -0.421875 0.375 -1.140625q0 -0.59375 -0.296875 -1.015625q-0.28125 -0.421875 -0.84375 -0.609375q-0.546875 -0.203125 -2.390625 -0.203125l-2.171875 0zm13.207336 5.828125l-2.5625 0l0 -9.671875l2.375 0l0 1.375q0.609375 -0.984375 1.09375 -1.28125q0.484375 -0.3125 1.109375 -0.3125q0.875 0 1.6875 0.484375l-0.796875 2.234375q-0.640625 -0.421875 -1.203125 -0.421875q-0.53125 0 -0.90625 0.296875q-0.375 0.296875 -0.59375 1.078125q-0.203125 0.765625 -0.203125 3.234375l0 2.984375zm6.713379 -6.71875l-2.328125 -0.421875q0.40625 -1.40625 1.359375 -2.078125q0.953125 -0.671875 2.84375 -0.671875q1.703125 0 2.546875 0.40625q0.84375 0.40625 1.171875 1.03125q0.34375 0.625 0.34375 2.28125l-0.015625 3.0q0 1.265625 0.109375 1.875q0.125 0.609375 0.46875 1.296875l-2.53125 0q-0.109375 -0.25 -0.25 -0.75q-0.0625 -0.234375 -0.09375 -0.3125q-0.65625 0.640625 -1.40625 0.96875q-0.734375 0.3125 -1.59375 0.3125q-1.484375 0 -2.34375 -0.8125q-0.859375 -0.8125 -0.859375 -2.046875q0 -0.828125 0.390625 -1.46875q0.390625 -0.640625 1.09375 -0.96875q0.703125 -0.34375 2.03125 -0.609375q1.796875 -0.328125 2.484375 -0.625l0 -0.25q0 -0.75 -0.359375 -1.0625q-0.359375 -0.3125 -1.375 -0.3125q-0.6875 0 -1.078125 0.28125q-0.375 0.265625 -0.609375 0.9375zm3.421875 2.078125q-0.484375 0.15625 -1.5625 0.390625q-1.0625 0.21875 -1.390625 0.4375q-0.5 0.359375 -0.5 0.90625q0 0.53125 0.40625 0.9375q0.40625 0.390625 1.015625 0.390625q0.703125 0 1.328125 -0.46875q0.46875 -0.34375 0.609375 -0.84375q0.09375 -0.328125 0.09375 -1.25l0 -0.5zm13.844482 4.640625l-2.5625 0l0 -4.9375q0 -1.5625 -0.171875 -2.015625q-0.15625 -0.46875 -0.53125 -0.71875q-0.359375 -0.265625 -0.875 -0.265625q-0.671875 0 -1.203125 0.375q-0.53125 0.359375 -0.734375 0.96875q-0.1875 0.59375 -0.1875 2.21875l0 4.375l-2.546875 0l0 -9.671875l2.375 0l0 1.421875q1.265625 -1.640625 3.1875 -1.640625q0.84375 0 1.546875 0.3125q0.703125 0.296875 1.0625 0.78125q0.359375 0.46875 0.5 1.078125q0.140625 0.59375 0.140625 1.703125l0 6.015625zm11.036591 -6.8125l-2.53125 0.453125q-0.125 -0.75 -0.578125 -1.125q-0.453125 -0.390625 -1.171875 -0.390625q-0.953125 0 -1.53125 0.65625q-0.5625 0.65625 -0.5625 2.203125q0 1.734375 0.578125 2.4375q0.578125 0.703125 1.546875 0.703125q0.734375 0 1.203125 -0.40625q0.46875 -0.421875 0.65625 -1.421875l2.515625 0.421875q-0.390625 1.734375 -1.515625 2.625q-1.109375 0.875 -2.96875 0.875q-2.125 0 -3.390625 -1.328125q-1.25 -1.34375 -1.25 -3.71875q0 -2.390625 1.265625 -3.71875q1.265625 -1.34375 3.421875 -1.34375q1.765625 0 2.796875 0.765625q1.046875 0.75 1.515625 2.3125zm4.4851074 -6.546875l0 4.921875q1.234375 -1.453125 2.953125 -1.453125q0.890625 0 1.59375 0.328125q0.71875 0.328125 1.078125 0.84375q0.359375 0.5 0.484375 1.125q0.140625 0.609375 0.140625 1.921875l0 5.671875l-2.5625 0l0 -5.109375q0 -1.515625 -0.15625 -1.921875q-0.140625 -0.421875 -0.515625 -0.65625q-0.359375 -0.25 -0.90625 -0.25q-0.640625 0 -1.140625 0.3125q-0.5 0.3125 -0.734375 0.9375q-0.234375 0.625 -0.234375 1.84375l0 4.84375l-2.5625 0l0 -13.359375l2.5625 0z" fill-rule="nonzero"/><path fill="#cfe2f3" d="m60.845146 240.84251l0 0c0 -12.132858 10.026001 -21.968506 22.3937 -21.968506l0 0c5.9391785 0 11.635101 2.3145447 15.83474 6.434433c4.1996307 4.1198883 6.55896 9.707672 6.55896 15.534073l0 0c0 12.132874 -10.026001 21.968521 -22.3937 21.968521l0 0c-12.367699 0 -22.3937 -9.835648 -22.3937 -21.968521z" fill-rule="evenodd"/><path stroke="#000000" stroke-width="2.0" stroke-linejoin="round" stroke-linecap="butt" d="m60.845146 240.84251l0 0c0 -12.132858 10.026001 -21.968506 22.3937 -21.968506l0 0c5.9391785 0 11.635101 2.3145447 15.83474 6.434433c4.1996307 4.1198883 6.55896 9.707672 6.55896 15.534073l0 0c0 12.132874 -10.026001 21.968521 -22.3937 21.968521l0 0c-12.367699 0 -22.3937 -9.835648 -22.3937 -21.968521z" fill-rule="evenodd"/><path fill="#cfe2f3" d="m334.59317 240.84251l0 0c0 -12.132858 10.026001 -21.968506 22.393707 -21.968506l0 0c5.9391785 0 11.635101 2.3145447 15.834747 6.434433c4.1996155 4.1198883 6.55896 9.707672 6.55896 15.534073l0 0c0 12.132874 -10.026001 21.968521 -22.393707 21.968521l0 0c-12.367706 0 -22.393707 -9.835648 -22.393707 -21.968521z" fill-rule="evenodd"/><path stroke="#000000" stroke-width="2.0" stroke-linejoin="round" stroke-linecap="butt" d="m334.59317 240.84251l0 0c0 -12.132858 10.026001 -21.968506 22.393707 -21.968506l0 0c5.9391785 0 11.635101 2.3145447 15.834747 6.434433c4.1996155 4.1198883 6.55896 9.707672 6.55896 15.534073l0 0c0 12.132874 -10.026001 21.968521 -22.393707 21.968521l0 0c-12.367706 0 -22.393707 -9.835648 -22.393707 -21.968521z" fill-rule="evenodd"/><path fill="#000000" fill-opacity="0.0" d="m105.632545 240.84251c57.247536 0 85.87301 0.01574707 114.49506 0.03149414c28.62204 0.01576233 57.240646 0.0315094 114.48131 0.0315094" fill-rule="evenodd"/><path stroke="#000000" stroke-width="3.0" stroke-linejoin="round" stroke-linecap="butt" d="m105.632545 240.84251c57.247536 0 85.87301 0.01574707 114.49506 0.03149414c28.62204 0.01576233 57.240646 0.0315094 114.48131 0.0315094" fill-rule="evenodd"/><path fill="#000000" fill-opacity="0.0" d="m209.61679 240.77953c31.244095 0 46.86615 0.01574707 62.48819 0.03149414c15.62204 0.01574707 31.24411 0.03149414 62.48819 0.03149414" fill-rule="evenodd"/><path stroke="#000000" stroke-width="3.0" stroke-linejoin="round" stroke-linecap="butt" d="m209.61679 240.77953c31.244095 0 46.86615 0.01574707 62.48819 0.03149414c15.62204 0.01574707 31.24411 0.03149414 62.48819 0.03149414" fill-rule="evenodd"/><path fill="#fce5cd" d="m115.7769 330.3622l0 0c0 -12.132874 10.026001 -21.968506 22.393707 -21.968506l0 0c5.9391785 0 11.635101 2.3145142 15.834732 6.4344177c4.1996307 4.1199036 6.55896 9.707672 6.55896 15.534088l0 0c0 12.132874 -10.026001 21.968506 -22.393692 21.968506l0 0c-12.367706 0 -22.393707 -9.835632 -22.393707 -21.968506z" fill-rule="evenodd"/><path stroke="#000000" stroke-width="2.0" stroke-linejoin="round" stroke-linecap="butt" d="m115.7769 330.3622l0 0c0 -12.132874 10.026001 -21.968506 22.393707 -21.968506l0 0c5.9391785 0 11.635101 2.3145142 15.834732 6.4344177c4.1996307 4.1199036 6.55896 9.707672 6.55896 15.534088l0 0c0 12.132874 -10.026001 21.968506 -22.393692 21.968506l0 0c-12.367706 0 -22.393707 -9.835632 -22.393707 -21.968506z" fill-rule="evenodd"/><path fill="#fce5cd" d="m267.83466 330.3622l0 0c0 -12.132874 10.026001 -21.968506 22.393677 -21.968506l0 0c5.9391785 0 11.635132 2.3145142 15.834747 6.4344177c4.199646 4.1199036 6.55896 9.707672 6.55896 15.534088l0 0c0 12.132874 -10.026001 21.968506 -22.393707 21.968506l0 0c-12.367676 0 -22.393677 -9.835632 -22.393677 -21.968506z" fill-rule="evenodd"/><path stroke="#000000" stroke-width="2.0" stroke-linejoin="round" stroke-linecap="butt" d="m267.83466 330.3622l0 0c0 -12.132874 10.026001 -21.968506 22.393677 -21.968506l0 0c5.9391785 0 11.635132 2.3145142 15.834747 6.4344177c4.199646 4.1199036 6.55896 9.707672 6.55896 15.534088l0 0c0 12.132874 -10.026001 21.968506 -22.393707 21.968506l0 0c-12.367676 0 -22.393677 -9.835632 -22.393677 -21.968506z" fill-rule="evenodd"/><path fill="#fce5cd" d="m388.64566 330.3937l0 0c0 -12.132874 10.026001 -21.968506 22.393707 -21.968506l0 0c5.9391785 0 11.635101 2.3145142 15.834747 6.4344177c4.1996155 4.1199036 6.55896 9.707672 6.55896 15.534088l0 0c0 12.132874 -10.026001 21.968506 -22.393707 21.968506l0 0c-12.367706 0 -22.393707 -9.835632 -22.393707 -21.968506z" fill-rule="evenodd"/><path stroke="#000000" stroke-width="2.0" stroke-linejoin="round" stroke-linecap="butt" d="m388.64566 330.3937l0 0c0 -12.132874 10.026001 -21.968506 22.393707 -21.968506l0 0c5.9391785 0 11.635101 2.3145142 15.834747 6.4344177c4.1996155 4.1199036 6.55896 9.707672 6.55896 15.534088l0 0c0 12.132874 -10.026001 21.968506 -22.393707 21.968506l0 0c-12.367706 0 -22.393707 -9.835632 -22.393707 -21.968506z" fill-rule="evenodd"/><path fill="#000000" fill-opacity="0.0" d="m83.238846 262.81104c0 33.77951 16.267715 67.55905 32.53543 67.55905" fill-rule="evenodd"/><path stroke="#000000" stroke-width="3.0" stroke-linejoin="round" stroke-linecap="butt" d="m83.238846 262.81104c0 33.77951 16.267715 67.55905 32.53543 67.55905" fill-rule="evenodd"/><path fill="#000000" fill-opacity="0.0" d="m312.62204 330.3622c19.005981 0 28.508026 0.01574707 38.011963 0.03149414c9.503937 0.01574707 19.009766 0.03149414 38.01953 0.03149414" fill-rule="evenodd"/><path stroke="#000000" stroke-width="3.0" stroke-linejoin="round" stroke-linecap="butt" d="m312.62204 330.3622c19.005981 0 28.508026 0.01574707 38.011963 0.03149414c9.503937 0.01574707 19.009766 0.03149414 38.01953 0.03149414" fill-rule="evenodd"/><path fill="#000000" fill-opacity="0.0" d="m160.5643 330.3622c26.817825 0 40.22621 0.01574707 53.63565 0.03149414c13.409454 0.01574707 26.819977 0.03149414 53.639954 0.03149414" fill-rule="evenodd"/><path stroke="#000000" stroke-width="3.0" stroke-linejoin="round" stroke-linecap="butt" d="m160.5643 330.3622c26.817825 0 40.22621 0.01574707 53.63565 0.03149414c13.409454 0.01574707 26.819977 0.03149414 53.639954 0.03149414" fill-rule="evenodd"/><path fill="#000000" fill-opacity="0.0" d="m433.43307 330.3937c19.905518 0 39.811005 -33.77954 39.811005 -67.55905" fill-rule="evenodd"/><path stroke="#000000" stroke-width="3.0" stroke-linejoin="round" stroke-linecap="butt" d="m433.43307 330.3937c19.905518 0 39.811005 -33.77954 39.811005 -67.55905" fill-rule="evenodd"/><path fill="#cfe2f3" d="m47.50656 169.43307l71.46457 0l0 29.165344l-71.46457 0z" fill-rule="evenodd"/><path stroke="#000000" stroke-width="3.0" stroke-linejoin="round" stroke-linecap="butt" d="m47.50656 169.43307l71.46457 0l0 29.165344l-71.46457 0z" fill-rule="evenodd"/><path fill="#000000" d="m68.88338 189.87575l-3.34375 -8.296875l2.296875 0l1.5625 4.234375l0.453125 1.40625q0.1875 -0.53125 0.234375 -0.703125q0.109375 -0.359375 0.234375 -0.703125l1.578125 -4.234375l2.25 0l-3.296875 8.296875l-1.96875 0zm6.6171875 0l0 -2.203125l2.1875 0l0 2.203125l-2.1875 0zm7.6796875 -11.5q1.671875 0 2.609375 1.1875q1.109375 1.40625 1.109375 4.65625q0 3.25 -1.125 4.671875q-0.921875 1.1875 -2.59375 1.1875q-1.671875 0 -2.703125 -1.28125q-1.015625 -1.296875 -1.015625 -4.59375q0 -3.234375 1.125 -4.65625q0.9375 -1.171875 2.59375 -1.171875zm0 1.8125q-0.390625 0 -0.703125 0.265625q-0.3125 0.25 -0.484375 0.90625q-0.234375 0.84375 -0.234375 2.859375q0 2.015625 0.203125 2.78125q0.203125 0.75 0.515625 1.0q0.3125 0.25 0.703125 0.25q0.40625 0 0.71875 -0.25q0.3125 -0.265625 0.484375 -0.921875q0.21875 -0.84375 0.21875 -2.859375q0 -2.015625 -0.203125 -2.765625q-0.203125 -0.75 -0.515625 -1.0q-0.296875 -0.265625 -0.703125 -0.265625zm5.6640625 9.6875l0 -2.203125l2.1875 0l0 2.203125l-2.1875 0zm9.5859375 0l-2.1875 0l0 -8.28125q-1.203125 1.125 -2.84375 1.671875l0 -2.0q0.859375 -0.28125 1.859375 -1.0625q1.015625 -0.78125 1.390625 -1.828125l1.78125 0l0 11.5z" fill-rule="nonzero"/><path fill="#cfe2f3" d="m437.50656 173.51181l71.46457 0l0 29.16536l-71.46457 0z" fill-rule="evenodd"/><path stroke="#000000" stroke-width="3.0" stroke-linejoin="round" stroke-linecap="butt" d="m437.50656 173.51181l71.46457 0l0 29.16536l-71.46457 0z" fill-rule="evenodd"/><path fill="#000000" d="m458.88336 193.95448l-3.34375 -8.296875l2.296875 0l1.5625 4.234375l0.453125 1.40625q0.1875 -0.53125 0.234375 -0.703125q0.109375 -0.359375 0.234375 -0.703125l1.578125 -4.234375l2.25 0l-3.296875 8.296875l-1.96875 0zm6.6171875 0l0 -2.203125l2.1875 0l0 2.203125l-2.1875 0zm7.679718 -11.5q1.671875 0 2.609375 1.1875q1.109375 1.40625 1.109375 4.65625q0 3.25 -1.125 4.671875q-0.921875 1.1875 -2.59375 1.1875q-1.671875 0 -2.703125 -1.28125q-1.0156555 -1.296875 -1.0156555 -4.59375q0 -3.234375 1.1250305 -4.65625q0.9375 -1.171875 2.59375 -1.171875zm0 1.8125q-0.390625 0 -0.703125 0.265625q-0.3125 0.25 -0.484375 0.90625q-0.234375 0.84375 -0.234375 2.859375q0 2.015625 0.203125 2.78125q0.203125 0.75 0.515625 1.0q0.3125 0.25 0.703125 0.25q0.40625 0 0.71875 -0.25q0.3125 -0.265625 0.484375 -0.921875q0.21875 -0.84375 0.21875 -2.859375q0 -2.015625 -0.203125 -2.765625q-0.203125 -0.75 -0.515625 -1.0q-0.296875 -0.265625 -0.703125 -0.265625zm5.6640625 9.6875l0 -2.203125l2.1875 0l0 2.203125l-2.1875 0zm11.3828125 -2.046875l0 2.046875l-7.6875 0q0.125 -1.15625 0.75 -2.1875q0.625 -1.046875 2.46875 -2.75q1.484375 -1.390625 1.8125 -1.875q0.453125 -0.6875 0.453125 -1.34375q0 -0.734375 -0.390625 -1.125q-0.390625 -0.40625 -1.09375 -0.40625q-0.6875 0 -1.09375 0.421875q-0.40625 0.40625 -0.46875 1.375l-2.1875 -0.21875q0.203125 -1.8125 1.234375 -2.59375q1.03125 -0.796875 2.578125 -0.796875q1.6875 0 2.65625 0.921875q0.96875 0.90625 0.96875 2.265625q0 0.765625 -0.28125 1.46875q-0.265625 0.703125 -0.875 1.46875q-0.390625 0.5 -1.4375 1.453125q-1.03125 0.953125 -1.3125 1.265625q-0.28125 0.3125 -0.453125 0.609375l4.359375 0z" fill-rule="nonzero"/><path fill="#fce5cd" d="m115.77428 381.9685l0 0c0 -12.132874 10.026001 -21.968506 22.393707 -21.968506l0 0c5.9391785 0 11.635101 2.3145447 15.834732 6.4344177c4.1996307 4.1199036 6.55896 9.707672 6.55896 15.534088l0 0c0 12.132874 -10.026001 21.968506 -22.393692 21.968506l0 0c-12.367706 0 -22.393707 -9.835632 -22.393707 -21.968506z" fill-rule="evenodd"/><path stroke="#000000" stroke-width="2.0" stroke-linejoin="round" stroke-linecap="butt" d="m115.77428 381.9685l0 0c0 -12.132874 10.026001 -21.968506 22.393707 -21.968506l0 0c5.9391785 0 11.635101 2.3145447 15.834732 6.4344177c4.1996307 4.1199036 6.55896 9.707672 6.55896 15.534088l0 0c0 12.132874 -10.026001 21.968506 -22.393692 21.968506l0 0c-12.367706 0 -22.393707 -9.835632 -22.393707 -21.968506z" fill-rule="evenodd"/><path fill="#fce5cd" d="m267.83203 381.9685l0 0c0 -12.132874 10.026001 -21.968506 22.393677 -21.968506l0 0c5.9391785 0 11.635132 2.3145447 15.834747 6.4344177c4.199646 4.1199036 6.55896 9.707672 6.55896 15.534088l0 0c0 12.132874 -10.026001 21.968506 -22.393707 21.968506l0 0c-12.367676 0 -22.393677 -9.835632 -22.393677 -21.968506z" fill-rule="evenodd"/><path stroke="#000000" stroke-width="2.0" stroke-linejoin="round" stroke-linecap="butt" d="m267.83203 381.9685l0 0c0 -12.132874 10.026001 -21.968506 22.393677 -21.968506l0 0c5.9391785 0 11.635132 2.3145447 15.834747 6.4344177c4.199646 4.1199036 6.55896 9.707672 6.55896 15.534088l0 0c0 12.132874 -10.026001 21.968506 -22.393707 21.968506l0 0c-12.367676 0 -22.393677 -9.835632 -22.393677 -21.968506z" fill-rule="evenodd"/><path fill="#fce5cd" d="m191.32414 381.9685l0 0c0 -12.132874 10.026001 -21.968506 22.393707 -21.968506l0 0c5.9391785 0 11.635101 2.3145447 15.834732 6.4344177c4.1996307 4.1199036 6.55896 9.707672 6.55896 15.534088l0 0c0 12.132874 -10.026001 21.968506 -22.393692 21.968506l0 0c-12.367706 0 -22.393707 -9.835632 -22.393707 -21.968506z" fill-rule="evenodd"/><path stroke="#000000" stroke-width="2.0" stroke-linejoin="round" stroke-linecap="butt" d="m191.32414 381.9685l0 0c0 -12.132874 10.026001 -21.968506 22.393707 -21.968506l0 0c5.9391785 0 11.635101 2.3145447 15.834732 6.4344177c4.1996307 4.1199036 6.55896 9.707672 6.55896 15.534088l0 0c0 12.132874 -10.026001 21.968506 -22.393692 21.968506l0 0c-12.367706 0 -22.393707 -9.835632 -22.393707 -21.968506z" fill-rule="evenodd"/><path fill="#000000" fill-opacity="0.0" d="m312.61942 381.9685c22.188995 0 44.37796 -59.5748 44.37796 -119.1496" fill-rule="evenodd"/><path stroke="#000000" stroke-width="3.0" stroke-linejoin="round" stroke-linecap="butt" d="m312.61942 381.9685c22.188995 0 44.37796 -59.5748 44.37796 -119.1496" fill-rule="evenodd"/><path fill="#000000" fill-opacity="0.0" d="m236.11154 381.9685c7.9300995 0 11.895615 0.01574707 15.860184 0.03149414c3.9645538 0.01574707 7.928177 0.03149414 15.856369 0.03149414" fill-rule="evenodd"/><path stroke="#000000" stroke-width="3.0" stroke-linejoin="round" stroke-linecap="butt" d="m236.11154 381.9685c7.9300995 0 11.895615 0.01574707 15.860184 0.03149414c3.9645538 0.01574707 7.928177 0.03149414 15.856369 0.03149414" fill-rule="evenodd"/><path fill="#000000" fill-opacity="0.0" d="m160.56168 381.9685c7.690613 0 11.5347595 0.01574707 15.38121 0.03149414c3.846466 0.01574707 7.695221 0.03149414 15.390442 0.03149414" fill-rule="evenodd"/><path stroke="#000000" stroke-width="3.0" stroke-linejoin="round" stroke-linecap="butt" d="m160.56168 381.9685c7.690613 0 11.5347595 0.01574707 15.38121 0.03149414c3.846466 0.01574707 7.695221 0.03149414 15.390442 0.03149414" fill-rule="evenodd"/><path fill="#000000" fill-opacity="0.0" d="m83.238846 262.81104c0 59.5748 16.267715 119.1496 32.53543 119.1496" fill-rule="evenodd"/><path stroke="#000000" stroke-width="3.0" stroke-linejoin="round" stroke-linecap="butt" d="m83.238846 262.81104c0 59.5748 16.267715 119.1496 32.53543 119.1496" fill-rule="evenodd"/><path fill="#cfe2f3" d="m450.84515 240.87401l0 0c0 -12.132858 10.026001 -21.96849 22.393677 -21.96849l0 0c5.9391785 0 11.635132 2.3145294 15.834747 6.4344177c4.199646 4.1199036 6.55896 9.707672 6.55896 15.534073l0 0c0 12.132874 -10.026001 21.968521 -22.393707 21.968521l0 0c-12.367676 0 -22.393677 -9.835648 -22.393677 -21.968521z" fill-rule="evenodd"/><path stroke="#000000" stroke-width="2.0" stroke-linejoin="round" stroke-linecap="butt" d="m450.84515 240.87401l0 0c0 -12.132858 10.026001 -21.96849 22.393677 -21.96849l0 0c5.9391785 0 11.635132 2.3145294 15.834747 6.4344177c4.199646 4.1199036 6.55896 9.707672 6.55896 15.534073l0 0c0 12.132874 -10.026001 21.968521 -22.393707 21.968521l0 0c-12.367676 0 -22.393677 -9.835648 -22.393677 -21.968521z" fill-rule="evenodd"/><path fill="#000000" fill-opacity="0.0" d="m379.38058 240.84251c17.86612 0 26.799194 0.01574707 35.73227 0.03149414c8.933075 0.01576233 17.86615 0.0315094 35.7323 0.0315094" fill-rule="evenodd"/><path stroke="#000000" stroke-width="3.0" stroke-linejoin="round" stroke-linecap="butt" d="m379.38058 240.84251c17.86612 0 26.799194 0.01574707 35.73227 0.03149414c8.933075 0.01576233 17.86615 0.0315094 35.7323 0.0315094" fill-rule="evenodd"/></g></svg>